<svg xmlns="http://www.w3.org/2000/svg" xmlns:xlink="http://www.w3.org/1999/xlink" version="1.1" width="256" height="256" viewBox="0 0 256 256" xml:space="preserve">

<defs>
</defs>
<g style="stroke: none; stroke-width: 0; stroke-dasharray: none; stroke-linecap: butt; stroke-linejoin: miter; stroke-miterlimit: 10; fill: none; fill-rule: nonzero; opacity: 1;" transform="translate(1.4065934065934016 1.4065934065934016) scale(2.81 2.81)" >
	<path d="M 23 21.659 c -5.229 0 -9.484 -4.254 -9.484 -9.484 V 9.484 C 13.516 4.254 17.771 0 23 0 s 9.484 4.254 9.484 9.484 v 2.691 C 32.484 17.404 28.229 21.659 23 21.659 z M 23 2 c -4.126 0 -7.484 3.357 -7.484 7.484 v 2.691 c 0 4.126 3.357 7.484 7.484 7.484 s 7.484 -3.357 7.484 -7.484 V 9.484 C 30.484 5.357 27.126 2 23 2 z" style="stroke: none; stroke-width: 1; stroke-dasharray: none; stroke-linecap: butt; stroke-linejoin: miter; stroke-miterlimit: 10; fill: rgb(0,0,0); fill-rule: nonzero; opacity: 1;" transform=" matrix(1 0 0 1 0 0) " stroke-linecap="round" />
	<path d="M 25.36 90 H 20.64 c -2.509 0 -4.567 -1.885 -4.787 -4.385 l -1.925 -25.102 c -4.003 -1.661 -6.648 -5.579 -6.648 -9.951 V 35.614 c 0 -5.946 4.837 -10.783 10.783 -10.783 h 9.876 c 5.946 0 10.783 4.837 10.783 10.783 v 14.948 c 0 4.372 -2.646 8.29 -6.648 9.951 l -1.924 25.09 C 29.928 88.115 27.87 90 25.36 90 z M 18.062 26.832 c -4.843 0 -8.783 3.94 -8.783 8.783 v 14.948 c 0 3.741 2.38 7.076 5.923 8.297 c 0.377 0.13 0.641 0.472 0.671 0.869 l 1.972 25.723 C 17.973 86.899 19.175 88 20.64 88 h 4.721 c 1.465 0 2.667 -1.101 2.795 -2.561 l 1.971 -25.711 c 0.03 -0.397 0.294 -0.739 0.671 -0.869 c 3.542 -1.221 5.923 -4.556 5.923 -8.297 V 35.614 c 0 -4.843 -3.94 -8.783 -8.783 -8.783 H 18.062 z" style="stroke: none; stroke-width: 1; stroke-dasharray: none; stroke-linecap: butt; stroke-linejoin: miter; stroke-miterlimit: 10; fill: rgb(0,0,0); fill-rule: nonzero; opacity: 1;" transform=" matrix(1 0 0 1 0 0) " stroke-linecap="round" />
	<path d="M 67 21.659 c -5.229 0 -9.483 -4.254 -9.483 -9.484 V 9.484 C 57.517 4.254 61.771 0 67 0 s 9.483 4.254 9.483 9.484 v 2.691 C 76.483 17.404 72.229 21.659 67 21.659 z M 67 2 c -4.126 0 -7.483 3.357 -7.483 7.484 v 2.691 c 0 4.126 3.357 7.484 7.483 7.484 s 7.483 -3.357 7.483 -7.484 V 9.484 C 74.483 5.357 71.126 2 67 2 z" style="stroke: none; stroke-width: 1; stroke-dasharray: none; stroke-linecap: butt; stroke-linejoin: miter; stroke-miterlimit: 10; fill: rgb(0,0,0); fill-rule: nonzero; opacity: 1;" transform=" matrix(1 0 0 1 0 0) " stroke-linecap="round" />
	<path d="M 69.36 90 H 64.64 c -2.51 0 -4.567 -1.885 -4.787 -4.385 l -0.857 -11.18 h -6.212 c -0.281 0 -0.55 -0.119 -0.739 -0.327 s -0.283 -0.486 -0.256 -0.767 l 1.557 -16.45 c -1.353 -1.852 -2.065 -4.031 -2.065 -6.329 V 35.614 c 0 -5.946 4.837 -10.783 10.782 -10.783 h 9.876 c 5.946 0 10.783 4.837 10.783 10.783 v 14.948 c 0 2.298 -0.713 4.478 -2.065 6.329 l 1.557 16.45 c 0.027 0.28 -0.066 0.559 -0.256 0.767 s -0.458 0.327 -0.739 0.327 h -6.212 l -0.856 11.168 C 73.928 88.115 71.87 90 69.36 90 z M 53.883 72.436 h 6.039 c 0.522 0 0.957 0.402 0.997 0.924 l 0.927 12.092 C 61.973 86.899 63.175 88 64.64 88 h 4.721 c 1.465 0 2.667 -1.101 2.795 -2.561 l 0.926 -12.08 c 0.04 -0.521 0.475 -0.924 0.997 -0.924 h 6.039 l -1.489 -15.744 c -0.024 -0.256 0.051 -0.511 0.21 -0.713 c 1.231 -1.563 1.883 -3.436 1.883 -5.416 V 35.614 c 0 -4.843 -3.94 -8.783 -8.783 -8.783 h -9.876 c -4.843 0 -8.782 3.94 -8.782 8.783 v 14.948 c 0 1.98 0.651 3.854 1.883 5.416 c 0.159 0.202 0.234 0.457 0.21 0.713 L 53.883 72.436 z" style="stroke: none; stroke-width: 1; stroke-dasharray: none; stroke-linecap: butt; stroke-linejoin: miter; stroke-miterlimit: 10; fill: rgb(0,0,0); fill-rule: nonzero; opacity: 1;" transform=" matrix(1 0 0 1 0 0) " stroke-linecap="round" />
</g>
</svg>