<svg xmlns="http://www.w3.org/2000/svg" xmlns:xlink="http://www.w3.org/1999/xlink" version="1.1" width="256" height="256" viewBox="0 0 256 256" xml:space="preserve">

<defs>
</defs>
<g style="stroke: none; stroke-width: 0; stroke-dasharray: none; stroke-linecap: butt; stroke-linejoin: miter; stroke-miterlimit: 10; fill: none; fill-rule: nonzero; opacity: 1;" transform="translate(1.4065934065934016 1.4065934065934016) scale(2.81 2.81)" >
	<path d="M 56.522 57.522 H 33.478 c -0.552 0 -1 -0.447 -1 -1 V 33.478 c 0 -0.552 0.448 -1 1 -1 h 23.045 c 0.553 0 1 0.448 1 1 v 23.045 C 57.522 57.075 57.075 57.522 56.522 57.522 z M 34.478 55.522 h 21.045 V 34.478 H 34.478 V 55.522 z" style="stroke: none; stroke-width: 1; stroke-dasharray: none; stroke-linecap: butt; stroke-linejoin: miter; stroke-miterlimit: 10; fill: rgb(0,0,0); fill-rule: nonzero; opacity: 1;" transform=" matrix(1 0 0 1 0 0) " stroke-linecap="round" />
	<path d="M 89 46 c 0.553 0 1 -0.448 1 -1 s -0.447 -1 -1 -1 H 77.065 V 30.76 H 89 c 0.553 0 1 -0.448 1 -1 s -0.447 -1 -1 -1 H 77.065 V 16.692 c 0 -2.072 -1.686 -3.758 -3.757 -3.758 H 61.239 V 1 c 0 -0.552 -0.447 -1 -1 -1 s -1 0.448 -1 1 v 11.934 H 46 V 1 c 0 -0.552 -0.448 -1 -1 -1 s -1 0.448 -1 1 v 11.934 H 30.76 V 1 c 0 -0.552 -0.448 -1 -1 -1 s -1 0.448 -1 1 v 11.934 H 16.692 c -2.072 0 -3.757 1.686 -3.757 3.758 V 28.76 H 1 c -0.552 0 -1 0.448 -1 1 s 0.448 1 1 1 h 11.935 V 44 H 1 c -0.552 0 -1 0.448 -1 1 s 0.448 1 1 1 h 11.935 v 13.239 H 1 c -0.552 0 -1 0.447 -1 1 s 0.448 1 1 1 h 11.935 v 12.069 c 0 2.071 1.686 3.757 3.757 3.757 H 28.76 V 89 c 0 0.553 0.448 1 1 1 s 1 -0.447 1 -1 V 77.065 H 44 V 89 c 0 0.553 0.448 1 1 1 s 1 -0.447 1 -1 V 77.065 h 13.239 V 89 c 0 0.553 0.447 1 1 1 s 1 -0.447 1 -1 V 77.065 h 12.069 c 2.071 0 3.757 -1.686 3.757 -3.757 V 61.239 H 89 c 0.553 0 1 -0.447 1 -1 s -0.447 -1 -1 -1 H 77.065 V 46 H 89 z M 75.065 59.239 h -4.079 c -0.553 0 -1 0.447 -1 1 s 0.447 1 1 1 h 4.079 v 12.069 c 0 0.969 -0.788 1.757 -1.757 1.757 H 61.239 v -4.08 c 0 -0.553 -0.447 -1 -1 -1 s -1 0.447 -1 1 v 4.08 H 46 v -4.08 c 0 -0.553 -0.448 -1 -1 -1 s -1 0.447 -1 1 v 4.08 H 30.76 v -4.08 c 0 -0.553 -0.448 -1 -1 -1 s -1 0.447 -1 1 v 4.08 H 16.692 c -0.969 0 -1.757 -0.788 -1.757 -1.757 V 61.239 h 4.08 c 0.552 0 1 -0.447 1 -1 s -0.448 -1 -1 -1 h -4.08 V 46 h 4.08 c 0.552 0 1 -0.448 1 -1 s -0.448 -1 -1 -1 h -4.08 V 30.76 h 4.08 c 0.552 0 1 -0.448 1 -1 s -0.448 -1 -1 -1 h -4.08 V 16.692 c 0 -0.969 0.788 -1.758 1.757 -1.758 H 28.76 v 4.08 c 0 0.552 0.448 1 1 1 s 1 -0.448 1 -1 v -4.08 H 44 v 4.08 c 0 0.552 0.448 1 1 1 s 1 -0.448 1 -1 v -4.08 h 13.239 v 4.08 c 0 0.552 0.447 1 1 1 s 1 -0.448 1 -1 v -4.08 h 12.069 c 0.969 0 1.757 0.789 1.757 1.758 V 28.76 h -4.079 c -0.553 0 -1 0.448 -1 1 s 0.447 1 1 1 h 4.079 V 44 h -4.079 c -0.553 0 -1 0.448 -1 1 s 0.447 1 1 1 h 4.079 V 59.239 z" style="stroke: none; stroke-width: 1; stroke-dasharray: none; stroke-linecap: butt; stroke-linejoin: miter; stroke-miterlimit: 10; fill: rgb(0,0,0); fill-rule: nonzero; opacity: 1;" transform=" matrix(1 0 0 1 0 0) " stroke-linecap="round" />
	<path d="M 38.23 43.61 c -0.256 0 -0.512 -0.098 -0.707 -0.293 c -0.391 -0.391 -0.391 -1.023 0 -1.414 l 4.527 -4.527 c 0.391 -0.391 1.023 -0.391 1.414 0 s 0.391 1.023 0 1.414 l -4.527 4.527 C 38.742 43.512 38.486 43.61 38.23 43.61 z" style="stroke: none; stroke-width: 1; stroke-dasharray: none; stroke-linecap: butt; stroke-linejoin: miter; stroke-miterlimit: 10; fill: rgb(0,0,0); fill-rule: nonzero; opacity: 1;" transform=" matrix(1 0 0 1 0 0) " stroke-linecap="round" />
	<path d="M 48.362 40.883 c -0.256 0 -0.512 -0.098 -0.707 -0.293 c -0.391 -0.391 -0.391 -1.023 0 -1.414 l 1.8 -1.8 c 0.391 -0.391 1.023 -0.391 1.414 0 s 0.391 1.023 0 1.414 l -1.8 1.8 C 48.874 40.785 48.618 40.883 48.362 40.883 z" style="stroke: none; stroke-width: 1; stroke-dasharray: none; stroke-linecap: butt; stroke-linejoin: miter; stroke-miterlimit: 10; fill: rgb(0,0,0); fill-rule: nonzero; opacity: 1;" transform=" matrix(1 0 0 1 0 0) " stroke-linecap="round" />
	<path d="M 38.136 51.109 c -0.256 0 -0.512 -0.098 -0.707 -0.293 c -0.391 -0.391 -0.391 -1.023 0 -1.414 l 7.417 -7.417 c 0.391 -0.391 1.024 -0.391 1.415 0 c 0.39 0.391 0.39 1.023 0 1.414 l -7.417 7.417 C 38.648 51.012 38.392 51.109 38.136 51.109 z" style="stroke: none; stroke-width: 1; stroke-dasharray: none; stroke-linecap: butt; stroke-linejoin: miter; stroke-miterlimit: 10; fill: rgb(0,0,0); fill-rule: nonzero; opacity: 1;" transform=" matrix(1 0 0 1 0 0) " stroke-linecap="round" />
</g>
</svg>